# xmcd CD database file
#
# Track frame offsets:
#	150
#	28500
#	56475
#	80625
#	104400
#	127275
#	158400
#	178200
#	205875
#	229875
#
# Disc length: 3498 seconds
#
# Revision: 1
# Processed by: cddbd v1.5.1PL0 Copyright (c) Steve Scherf et al.
# Submitted via: freeDBTagger 0.5
#
DISCID=870da80a
DTITLE=角松敏生 - ALL IS VANITY
DYEAR=1991
DGENRE=rock
TTITLE0=夜離れ〜YOU'RE LEAVING MY HEART
TTITLE1=夏回帰〜SUMMER DAYS
TTITLE2=海〜THE SEA
TTITLE3=この駅から・・・〜STATION
TTITLE4=ただ一度だけ〜IF ONLY ONCE
TTITLE5=ALL IS VANITY
TTITLE6=UP TOWN GIRL
TTITLE7=DISTANCE
TTITLE8=彷徨〜STRAY AT NIGHT
TTITLE9=WHAT IS WOMAN
EXTD=
EXTT0=
EXTT1=
EXTT2=
EXTT3=
EXTT4=
EXTT5=
EXTT6=
EXTT7=
EXTT8=
EXTT9=
PLAYORDER=
